<svg width="13" height="14" viewBox="0 0 13 14" fill="none" xmlns="http://www.w3.org/2000/svg">
<path d="M3.4856 2.18132V1.28564M9.45679 2.18132V1.28564M12.1438 5.16692H5.72479H2.81384H0.5M7.66543 12.9295H5.27695C3.02522 12.9295 1.89905 12.9295 1.19982 12.2296C0.5 11.5304 0.5 10.4042 0.5 8.15251V6.95828C0.5 4.70654 0.5 3.58037 1.19982 2.88115C1.89905 2.18132 3.02522 2.18132 5.27695 2.18132H7.66543C9.91717 2.18132 11.0433 2.18132 11.7426 2.88115C12.4424 3.58037 12.4424 4.70654 12.4424 6.95828V8.15251C12.4424 10.4042 12.4424 11.5304 11.7426 12.2296C11.3526 12.6202 10.8302 12.7927 10.0539 12.8686C9.71118 12.9139 8.31879 12.9281 7.66543 12.9295Z" stroke="#73929B" stroke-linecap="round"/>
<path d="M10.0539 9.9436C10.0539 10.102 9.99095 10.2538 9.87897 10.3658C9.76698 10.4778 9.6151 10.5407 9.45674 10.5407C9.29837 10.5407 9.14649 10.4778 9.03451 10.3658C8.92253 10.2538 8.85962 10.102 8.85962 9.9436C8.85962 9.78524 8.92253 9.63336 9.03451 9.52138C9.14649 9.40939 9.29837 9.34648 9.45674 9.34648C9.6151 9.34648 9.76698 9.40939 9.87897 9.52138C9.99095 9.63336 10.0539 9.78524 10.0539 9.9436ZM10.0539 7.55513C10.0539 7.71349 9.99095 7.86537 9.87897 7.97735C9.76698 8.08934 9.6151 8.15225 9.45674 8.15225C9.29837 8.15225 9.14649 8.08934 9.03451 7.97735C8.92253 7.86537 8.85962 7.71349 8.85962 7.55513C8.85962 7.39676 8.92253 7.24488 9.03451 7.1329C9.14649 7.02092 9.29837 6.95801 9.45674 6.95801C9.6151 6.95801 9.76698 7.02092 9.87897 7.1329C9.99095 7.24488 10.0539 7.39676 10.0539 7.55513ZM7.06826 9.9436C7.06826 10.102 7.00535 10.2538 6.89337 10.3658C6.78139 10.4778 6.62951 10.5407 6.47114 10.5407C6.31278 10.5407 6.1609 10.4778 6.04892 10.3658C5.93693 10.2538 5.87402 10.102 5.87402 9.9436C5.87402 9.78524 5.93693 9.63336 6.04892 9.52138C6.1609 9.40939 6.31278 9.34648 6.47114 9.34648C6.62951 9.34648 6.78139 9.40939 6.89337 9.52138C7.00535 9.63336 7.06826 9.78524 7.06826 9.9436ZM7.06826 7.55513C7.06826 7.71349 7.00535 7.86537 6.89337 7.97735C6.78139 8.08934 6.62951 8.15225 6.47114 8.15225C6.31278 8.15225 6.1609 8.08934 6.04892 7.97735C5.93693 7.86537 5.87402 7.71349 5.87402 7.55513C5.87402 7.39676 5.93693 7.24488 6.04892 7.1329C6.1609 7.02092 6.31278 6.95801 6.47114 6.95801C6.62951 6.95801 6.78139 7.02092 6.89337 7.1329C7.00535 7.24488 7.06826 7.39676 7.06826 7.55513ZM4.08267 9.9436C4.08267 10.102 4.01976 10.2538 3.90777 10.3658C3.79579 10.4778 3.64391 10.5407 3.48555 10.5407C3.32718 10.5407 3.1753 10.4778 3.06332 10.3658C2.95134 10.2538 2.88843 10.102 2.88843 9.9436C2.88843 9.78524 2.95134 9.63336 3.06332 9.52138C3.1753 9.40939 3.32718 9.34648 3.48555 9.34648C3.64391 9.34648 3.79579 9.40939 3.90777 9.52138C4.01976 9.63336 4.08267 9.78524 4.08267 9.9436ZM4.08267 7.55513C4.08267 7.71349 4.01976 7.86537 3.90777 7.97735C3.79579 8.08934 3.64391 8.15225 3.48555 8.15225C3.32718 8.15225 3.1753 8.08934 3.06332 7.97735C2.95134 7.86537 2.88843 7.71349 2.88843 7.55513C2.88843 7.39676 2.95134 7.24488 3.06332 7.1329C3.1753 7.02092 3.32718 6.95801 3.48555 6.95801C3.64391 6.95801 3.79579 7.02092 3.90777 7.1329C4.01976 7.24488 4.08267 7.39676 4.08267 7.55513Z" fill="#73929B" stroke="#73929B" stroke-width="0.5"/>
</svg>
