<svg width="22" height="17" viewBox="0 0 22 17" fill="none" xmlns="http://www.w3.org/2000/svg"><path d="M6.365 2.743c1.765 0 3.53-.005 5.296.006.27.001.396-.074.494-.34C12.717.89 14.045-.012 15.651 0c1.528.012 2.85.967 3.387 2.465.075.21.177.288.396.284a47 47 0 0 1 1.583 0c.576.007.977.375.983.888.005.513-.392.895-.965.906-.516.01-1.032.016-1.547-.002-.262-.01-.38.088-.469.333A3.644 3.644 0 0 1 13.28 6.48c-.504-.402-.887-.905-1.088-1.516-.108-.33-.271-.426-.614-.425-3.485.013-6.97.006-10.456.01-.358 0-.686-.046-.921-.354a.884.884 0 0 1 .56-1.427c.135-.023.275-.02.412-.02h5.194q-.003-.003-.002-.005m7.377.907a1.845 1.845 0 0 0 1.83 1.846c1.015 0 1.857-.817 1.87-1.818a1.87 1.87 0 0 0-1.875-1.88 1.85 1.85 0 0 0-1.825 1.852m1.896 10.072c-1.765 0-3.53.004-5.296-.005-.266-.002-.4.068-.5.336-.559 1.509-1.896 2.432-3.455 2.417-1.568-.014-2.873-.946-3.424-2.465-.074-.205-.171-.293-.394-.288-.515.013-1.032.006-1.548.002-.598-.004-1.014-.366-1.02-.884-.008-.541.399-.905 1.028-.911.505-.005 1.01-.01 1.514.002.23.006.343-.071.425-.296.545-1.513 1.86-2.448 3.428-2.457 1.55-.008 2.887.907 3.436 2.393.111.3.266.362.553.362 3.508-.009 7.017-.004 10.524-.009.39 0 .726.082.948.437a.88.88 0 0 1-.58 1.337c-.132.029-.273.026-.41.027q-2.614.003-5.229.002m-7.381-.89a1.84 1.84 0 0 0-1.818-1.86 1.867 1.867 0 0 0-1.882 1.84 1.866 1.866 0 0 0 1.863 1.86 1.85 1.85 0 0 0 1.837-1.84" fill="#fff"/></svg>