<svg width="22" height="17" viewBox="0 0 22 17" fill="none" xmlns="http://www.w3.org/2000/svg">
<path d="M6.36454 2.74341C8.1301 2.74341 9.89565 2.7379 11.6612 2.74891C11.9309 2.75029 12.0568 2.6746 12.1552 2.40901C12.7174 0.890471 14.0446 -0.0122592 15.6506 0.000125805C17.1794 0.0118228 18.5019 0.966845 19.0385 2.46543C19.1135 2.6746 19.2154 2.75304 19.4342 2.74891C19.9612 2.7379 20.489 2.74134 21.0167 2.74822C21.5926 2.75579 21.9944 3.1239 21.9999 3.63719C22.0054 4.15048 21.6084 4.53167 21.0353 4.54336C20.5192 4.55368 20.0032 4.5585 19.4878 4.54061C19.2264 4.53167 19.108 4.62868 19.0193 4.87363C18.1496 7.2605 15.2652 8.06484 13.2802 6.48024C12.7759 6.07773 12.3933 5.57476 12.1924 4.96377C12.0837 4.6335 11.9206 4.53786 11.5779 4.53923C8.09294 4.55231 4.60725 4.54543 1.12224 4.54887C0.764453 4.54887 0.435562 4.50346 0.200935 4.19452C-0.216716 3.64614 0.0798367 2.88377 0.761701 2.76818C0.895872 2.74547 1.03555 2.74891 1.17316 2.74891C2.90431 2.74754 4.63615 2.74822 6.3673 2.74822C6.36454 2.74616 6.36454 2.74478 6.36454 2.74341ZM13.7419 3.64958C13.7398 4.66171 14.5662 5.49495 15.5728 5.49563C16.587 5.49632 17.4285 4.67891 17.4429 3.67848C17.4574 2.64639 16.6008 1.7877 15.5666 1.79802C14.5572 1.80696 13.7446 2.63263 13.7419 3.64958Z" fill="#333333"/>
<path d="M15.6382 13.7215C13.8727 13.7215 12.1071 13.7263 10.3416 13.7166C10.076 13.7153 9.9425 13.7848 9.84273 14.0531C9.28334 15.562 7.94645 16.4847 6.38731 16.4702C4.81855 16.4558 3.51399 15.5235 2.96286 14.0049C2.88855 13.7999 2.79153 13.7118 2.56929 13.7173C2.05393 13.7297 1.5372 13.7228 1.02116 13.7187C0.423241 13.7153 0.00696654 13.3527 8.5974e-05 12.8346C-0.00679459 12.2937 0.399847 11.9298 1.02942 11.9236C1.53376 11.9188 2.0388 11.9139 2.54314 11.9263C2.77295 11.9318 2.88648 11.8548 2.96767 11.6305C3.51261 10.1174 4.82887 9.18236 6.39626 9.17341C7.94645 9.16515 9.28265 10.0796 9.83241 11.5665C9.94319 11.8665 10.098 11.9284 10.3849 11.9277C13.8933 11.9194 17.4017 11.9236 20.9094 11.9194C21.2996 11.9188 21.6346 12.0013 21.8569 12.3564C22.1865 12.882 21.8975 13.5618 21.2775 13.6933C21.1447 13.7215 21.0044 13.7194 20.8668 13.7201C19.1239 13.7222 17.3811 13.7215 15.6382 13.7215ZM8.25676 12.8318C8.26502 11.8162 7.45587 10.9885 6.43892 10.9727C5.42059 10.9569 4.5619 11.7956 4.55708 12.8125C4.55158 13.8302 5.39582 14.6724 6.41965 14.6717C7.42834 14.6703 8.24851 13.8494 8.25676 12.8318Z" fill="#333333"/>
</svg>
