<svg width="21" height="21" viewBox="0 0 21 21" fill="none" xmlns="http://www.w3.org/2000/svg">
<path d="M14.667 1.95215H6.33366C4.03247 1.95215 2.16699 3.81763 2.16699 6.11881V14.4521C2.16699 16.7533 4.03247 18.6188 6.33366 18.6188H14.667C16.9682 18.6188 18.8337 16.7533 18.8337 14.4521V6.11881C18.8337 3.81763 16.9682 1.95215 14.667 1.95215Z" stroke="#B1B7C7" stroke-width="1.5" stroke-linecap="round" stroke-linejoin="round"/>
<path d="M13.8328 9.76041C13.9356 10.4539 13.8171 11.1623 13.4942 11.7846C13.1713 12.4069 12.6604 12.9116 12.0341 13.2268C11.4079 13.542 10.6981 13.6517 10.0059 13.5404C9.3137 13.429 8.67423 13.1021 8.17846 12.6064C7.68269 12.1106 7.35587 11.4711 7.24449 10.7789C7.1331 10.0867 7.24282 9.37699 7.55804 8.75072C7.87325 8.12445 8.37792 7.61352 9.00025 7.29061C9.62258 6.96769 10.3309 6.84923 11.0244 6.95207C11.7319 7.05698 12.3868 7.38663 12.8925 7.89233C13.3982 8.39803 13.7279 9.05297 13.8328 9.76041Z" stroke="#B1B7C7" stroke-width="1.5" stroke-linecap="round" stroke-linejoin="round"/>
<path d="M15.0811 5.70215H15.0911" stroke="#B1B7C7" stroke-width="1.5" stroke-linecap="round" stroke-linejoin="round"/>
</svg>
