<svg width="20" height="21" viewBox="0 0 20 21" fill="none" xmlns="http://www.w3.org/2000/svg">
<path fill-rule="evenodd" clip-rule="evenodd" d="M10.2502 0.535645C4.86524 0.535645 0.500244 4.90064 0.500244 10.2856C0.500244 15.6706 4.86524 20.0356 10.2502 20.0356C15.6352 20.0356 20.0002 15.6706 20.0002 10.2856C20.0002 4.90064 15.6352 0.535645 10.2502 0.535645ZM2.00024 10.2856C2.00079 8.54749 2.55031 6.85391 3.57038 5.44656C4.59046 4.03922 6.02897 2.99 7.68067 2.44863C9.33236 1.90726 11.1129 1.90139 12.7681 2.43186C14.4233 2.96233 15.8687 4.00204 16.898 5.40263C17.9274 6.80322 18.488 8.49314 18.5 10.2313C18.5121 11.9694 17.9748 13.6669 16.9649 15.0816C15.955 16.4962 14.5241 17.5558 12.8764 18.1091C11.2287 18.6624 9.44826 18.6811 7.78924 18.1626C8.21222 17.499 8.5483 16.7838 8.78924 16.0346L9.30524 14.0576C9.51851 14.3624 9.80462 14.6089 10.1375 14.7749C10.4704 14.9408 10.8395 15.0208 11.2112 15.0076C13.7462 15.0076 15.5282 12.7036 15.5282 9.84164C15.5282 7.09264 13.2832 5.03864 10.4042 5.03864C6.81724 5.03864 4.91224 7.44864 4.91224 10.0676C4.91224 11.2906 5.55924 12.8046 6.59824 13.2916C6.75224 13.3626 6.85324 13.2916 6.87724 13.1786C6.90124 13.0656 7.04324 12.4966 7.10824 12.2346C7.11857 12.1933 7.11859 12.1501 7.1083 12.1088C7.09802 12.0675 7.07774 12.0293 7.04924 11.9976C6.65549 11.4452 6.44748 10.782 6.45524 10.1036C6.45345 9.61689 6.55039 9.13483 6.7402 8.6866C6.93 8.23838 7.20874 7.8333 7.55954 7.49586C7.91035 7.15841 8.32595 6.89562 8.78121 6.72336C9.23646 6.5511 9.72193 6.47295 10.2082 6.49364C10.6637 6.467 11.1198 6.53558 11.5472 6.69503C11.9747 6.85447 12.3643 7.10127 12.6911 7.41968C13.0179 7.73809 13.2747 8.12111 13.4452 8.54432C13.6157 8.96753 13.6961 9.42163 13.6812 9.87764C13.6812 12.1216 12.5412 13.6836 11.0692 13.6836C10.8791 13.6981 10.6882 13.6666 10.5128 13.5917C10.3374 13.5169 10.1825 13.4009 10.0614 13.2536C9.94029 13.1063 9.8564 12.932 9.81686 12.7454C9.77732 12.5588 9.78328 12.3654 9.83424 12.1816C9.91824 11.8316 10.0302 11.4706 10.1382 11.1186C10.3352 10.4806 10.5232 9.87364 10.5232 9.41464C10.5437 9.26543 10.5317 9.11357 10.4881 8.96942C10.4444 8.82528 10.3702 8.69226 10.2704 8.57946C10.1706 8.46666 10.0476 8.37674 9.90985 8.31585C9.77211 8.25496 9.62284 8.22453 9.47224 8.22664C8.64024 8.22664 7.96924 9.09365 7.96924 10.2456C7.96324 10.6526 8.03924 11.0566 8.19524 11.4336L7.21524 15.5896C7.09607 16.3752 7.09607 17.1741 7.21524 17.9596C6.56924 17.704 5.95835 17.3673 5.39724 16.9576C4.01879 15.9519 2.98381 14.5457 2.43324 12.9306C2.14482 12.0787 1.99854 11.1851 2.00024 10.2856Z" fill="#B1B7C7"/>
</svg>
