<svg width="24" height="24" viewBox="0 0 24 24" fill="none" xmlns="http://www.w3.org/2000/svg">
<path d="M21 21L16.4439 16.4439M16.4439 16.4439C17.1751 15.7126 17.7552 14.8444 18.151 13.889C18.5468 12.9335 18.7505 11.9094 18.7505 10.8752C18.7505 9.84104 18.5468 8.81698 18.151 7.86152C17.7552 6.90605 17.1751 6.03789 16.4439 5.30661C15.7126 4.57533 14.8444 3.99524 13.8889 3.59947C12.9335 3.20371 11.9094 3.00001 10.8752 3.00001C9.84104 3.00001 8.81697 3.20371 7.86151 3.59947C6.90604 3.99524 6.03788 4.57533 5.3066 5.30661C3.82971 6.7835 3 8.78659 3 10.8752C3 12.9639 3.82971 14.967 5.3066 16.4439C6.78349 17.9208 8.78659 18.7505 10.8752 18.7505C12.9639 18.7505 14.967 17.9208 16.4439 16.4439Z" stroke="#333333" stroke-width="2" stroke-linecap="round" stroke-linejoin="round"/>
</svg>
