<svg width="21" height="21" viewBox="0 0 21 21" fill="none" xmlns="http://www.w3.org/2000/svg">
<path d="M11.3996 9.21231L7.41127 3.62064C7.36502 3.55568 7.3039 3.50272 7.23301 3.46619C7.16212 3.42966 7.08352 3.41061 7.00377 3.41064H4.89877C4.80702 3.41076 4.71708 3.43612 4.63878 3.48395C4.56048 3.53178 4.49685 3.60023 4.45486 3.6818C4.41287 3.76338 4.39413 3.85493 4.4007 3.94645C4.40727 4.03796 4.43889 4.1259 4.49211 4.20064L9.59794 11.359M11.3996 9.21231L16.5054 16.3706C16.5587 16.4454 16.5903 16.5333 16.5968 16.6248C16.6034 16.7164 16.5847 16.8079 16.5427 16.8895C16.5007 16.9711 16.4371 17.0395 16.3588 17.0873C16.2805 17.1352 16.1905 17.1605 16.0988 17.1606H13.9938C13.914 17.1607 13.8354 17.1416 13.7645 17.1051C13.6936 17.0686 13.6325 17.0156 13.5863 16.9506L9.59794 11.359M11.3996 9.21231L16.2679 3.41064M9.59794 11.359L4.72961 17.1606" stroke="#B1B7C7" stroke-width="1.5" stroke-linecap="round" stroke-linejoin="round"/>
</svg>
