<svg width="23" height="17" viewBox="0 0 23 17" fill="none" xmlns="http://www.w3.org/2000/svg">
<path d="M21.0815 3.45831C20.9735 3.02686 20.7535 2.63155 20.4439 2.31231C20.1342 1.99307 19.7458 1.7612 19.3178 1.64012C17.7542 1.2583 11.4996 1.2583 11.4996 1.2583C11.4996 1.2583 5.24502 1.2583 3.68137 1.67648C3.25341 1.79756 2.86498 2.02943 2.55532 2.34868C2.24565 2.66792 2.02572 3.06323 1.91773 3.49468C1.63156 5.08155 1.49158 6.69134 1.49954 8.30379C1.48934 9.92839 1.62933 11.5504 1.91773 13.1493C2.03678 13.5673 2.26164 13.9476 2.57059 14.2533C2.87953 14.5591 3.26212 14.78 3.68137 14.8947C5.24502 15.3129 11.4996 15.3129 11.4996 15.3129C11.4996 15.3129 17.7542 15.3129 19.3178 14.8947C19.7458 14.7737 20.1342 14.5418 20.4439 14.2225C20.7535 13.9033 20.9735 13.508 21.0815 13.0765C21.3654 11.5016 21.5054 9.9041 21.4996 8.30379C21.5098 6.6792 21.3699 5.05714 21.0815 3.45831Z" stroke="#B1B7C7" stroke-width="1.5" stroke-linecap="round" stroke-linejoin="round"/>
<path d="M9.4541 11.2765L14.6814 8.3038L9.4541 5.33105V11.2765Z" stroke="#B1B7C7" stroke-width="1.5" stroke-linecap="round" stroke-linejoin="round"/>
</svg>
