<svg width="258" height="60" viewBox="0 0 258 60" fill="none" xmlns="http://www.w3.org/2000/svg">
<path d="M80.7884 24.3069C80.7884 22.8716 81.2534 21.7597 82.1833 20.9713C83.1335 20.1828 84.4779 19.7886 86.2164 19.7886C87.955 19.7886 89.3702 19.9706 90.4618 20.3345V23.0636C89.3702 22.6391 88.046 22.4268 86.4894 22.4268C84.6093 22.4268 83.6692 23.1243 83.6692 24.5192V25.7018C83.6692 26.3487 83.7905 26.8643 84.0331 27.2484C84.2959 27.6123 84.7508 27.9761 85.3977 28.34L88.9153 30.3111C90.5528 31.2006 91.3715 32.545 91.3715 34.3442V36.0424C91.3715 37.5181 90.856 38.6603 89.825 39.469C88.794 40.2574 87.3384 40.6516 85.4583 40.6516C83.5985 40.6516 82.1025 40.4394 80.9704 40.0148V37.2856C82.3046 37.7708 83.7097 38.0134 85.1854 38.0134C87.389 38.0134 88.4908 37.2654 88.4908 35.7694V34.7384C88.4908 34.1319 88.3796 33.667 88.1572 33.3435C87.9348 32.9998 87.5204 32.6663 86.9139 32.3428L83.4873 30.4627C81.688 29.4923 80.7884 28.0469 80.7884 26.1264V24.3069ZM94.7169 19.9402H97.5674V40.5H94.7169V19.9402ZM102.692 19.9402H105.755L101.6 30.0988L106.028 40.5H102.844L98.5681 30.1595L102.692 19.9402ZM115.011 40.5H112.13V33.7377L107.127 19.9402H110.068L111.797 24.7921C112.423 26.6116 113.03 28.5422 113.616 30.584C114.182 28.6028 114.779 26.6722 115.405 24.7921L117.134 19.9402H120.015L115.011 33.7377V40.5ZM122.552 19.9402H125.433V38.0437H131.437V40.5H122.552V19.9402ZM134.086 19.9402H136.967V40.5H134.086V19.9402ZM150.151 19.9402H152.971V40.5H149.939C146.765 32.3934 144.693 27.0159 143.722 24.3676C143.722 24.5899 143.763 25.0549 143.844 25.7625C144.005 27.5213 144.086 29.4721 144.086 31.615V40.5H141.296V19.9402H144.359C147.169 27.0563 148.877 31.4634 149.484 33.1616C150.09 34.8597 150.434 35.82 150.515 36.0424C150.515 35.8604 150.454 34.9709 150.333 33.3738C150.232 31.7565 150.171 30.1999 150.151 28.7039V19.9402ZM157.331 19.9402H166.702V22.4572H160.182V28.8555H165.853V31.3724H160.182V38.0134H166.702V40.5H157.331V19.9402ZM178.764 24.3069C178.764 22.8716 179.229 21.7597 180.159 20.9713C181.109 20.1828 182.453 19.7886 184.192 19.7886C185.93 19.7886 187.345 19.9706 188.437 20.3345V23.0636C187.345 22.6391 186.021 22.4268 184.465 22.4268C182.585 22.4268 181.645 23.1243 181.645 24.5192V25.7018C181.645 26.3487 181.766 26.8643 182.008 27.2484C182.271 27.6123 182.726 27.9761 183.373 28.34L186.891 30.3111C188.528 31.2006 189.347 32.545 189.347 34.3442V36.0424C189.347 37.5181 188.831 38.6603 187.8 39.469C186.769 40.2574 185.314 40.6516 183.434 40.6516C181.574 40.6516 180.078 40.4394 178.946 40.0148V37.2856C180.28 37.7708 181.685 38.0134 183.161 38.0134C185.364 38.0134 186.466 37.2654 186.466 35.7694V34.7384C186.466 34.1319 186.355 33.667 186.133 33.3435C185.91 32.9998 185.496 32.6663 184.889 32.3428L181.463 30.4627C179.663 29.4923 178.764 28.0469 178.764 26.1264V24.3069ZM192.389 24.3372C192.389 22.9019 192.874 21.79 193.845 21.0016C194.815 20.193 196.281 19.7886 198.242 19.7886C199.535 19.7886 200.728 19.9402 201.82 20.2435V22.8817C200.627 22.538 199.455 22.3662 198.302 22.3662C197.15 22.3662 196.351 22.5481 195.907 22.912C195.482 23.2759 195.27 23.8217 195.27 24.5495V35.9211C195.27 36.6286 195.492 37.1643 195.937 37.5282C196.382 37.8921 197.2 38.0741 198.393 38.0741C199.586 38.0741 200.758 37.9123 201.911 37.5889V40.1664C200.86 40.4899 199.626 40.6516 198.211 40.6516C194.33 40.6516 192.389 39.1354 192.389 36.103V24.3372ZM205.411 19.9402H214.781V22.4572H208.261V28.8555H213.932V31.3724H208.261V38.0134H214.781V40.5H205.411V19.9402ZM227.132 19.9402H229.952V40.5H226.919C223.745 32.3934 221.673 27.0159 220.703 24.3676C220.703 24.5899 220.743 25.0549 220.824 25.7625C220.986 27.5213 221.067 29.4721 221.067 31.615V40.5H218.277V19.9402H221.34C224.15 27.0563 225.858 31.4634 226.465 33.1616C227.071 34.8597 227.415 35.82 227.496 36.0424C227.496 35.8604 227.435 34.9709 227.314 33.3738C227.213 31.7565 227.152 30.1999 227.132 28.7039V19.9402ZM234.312 19.9402H243.682V22.4572H237.163V28.8555H242.833V31.3724H237.163V38.0134H243.682V40.5H234.312V19.9402ZM246.087 24.3069C246.087 22.8716 246.552 21.7597 247.482 20.9713C248.432 20.1828 249.776 19.7886 251.515 19.7886C253.253 19.7886 254.669 19.9706 255.76 20.3345V23.0636C254.669 22.6391 253.344 22.4268 251.788 22.4268C249.908 22.4268 248.968 23.1243 248.968 24.5192V25.7018C248.968 26.3487 249.089 26.8643 249.332 27.2484C249.594 27.6123 250.049 27.9761 250.696 28.34L254.214 30.3111C255.851 31.2006 256.67 32.545 256.67 34.3442V36.0424C256.67 37.5181 256.154 38.6603 255.123 39.469C254.092 40.2574 252.637 40.6516 250.757 40.6516C248.897 40.6516 247.401 40.4394 246.269 40.0148V37.2856C247.603 37.7708 249.008 38.0134 250.484 38.0134C252.687 38.0134 253.789 37.2654 253.789 35.7694V34.7384C253.789 34.1319 253.678 33.667 253.456 33.3435C253.233 32.9998 252.819 32.6663 252.212 32.3428L248.786 30.4627C246.986 29.4923 246.087 28.0469 246.087 26.1264V24.3069Z" fill="#343636"/>
<path d="M30 0C29.3367 0 28.6785 0.0215252 28.0259 0.0639153L21.7738 10.7453H53.0065C47.5033 4.17682 39.2394 0 30 0Z" fill="#D9D9D9"/>
<path d="M30 0C29.3367 0 28.6785 0.0215252 28.0259 0.0639153L21.7738 10.7453H53.0065C47.5033 4.17682 39.2394 0 30 0Z" fill="url(#paint0_linear_4564_170)"/>
<path d="M54.9211 13.293C58.1286 18.0679 60 23.8154 60 30C60 33.6482 59.3488 37.1443 58.1563 40.3784C57.8058 41.329 57.4085 42.257 56.9673 43.1595C52.8118 51.6593 44.756 57.9042 35.131 59.5629L50.6897 32.6858L56.9673 43.1595C57.4085 42.257 57.8058 41.329 58.1563 40.3784L42.277 13.293H54.9211Z" fill="#D9D9D9"/>
<path d="M54.9211 13.293C58.1286 18.0679 60 23.8154 60 30C60 33.6482 59.3488 37.1443 58.1563 40.3784C57.8058 41.329 57.4085 42.257 56.9673 43.1595C52.8118 51.6593 44.756 57.9042 35.131 59.5629L50.6897 32.6858L56.9673 43.1595C57.4085 42.257 57.8058 41.329 58.1563 40.3784L42.277 13.293H54.9211Z" fill="url(#paint1_linear_4564_170)"/>
<path d="M7.03128 49.2997C12.5344 55.8422 20.7817 60 30 60C30.7114 60 31.417 59.9752 32.116 59.9265L38.1764 49.2997H7.03128Z" fill="#D9D9D9"/>
<path d="M7.03128 49.2997C12.5344 55.8422 20.7817 60 30 60C30.7114 60 31.417 59.9752 32.116 59.9265L38.1764 49.2997H7.03128Z" fill="url(#paint2_linear_4564_170)"/>
<path d="M0 30C0 36.3567 1.97706 42.2517 5.34982 47.1035H17.5041L1.76389 19.8406C0.622176 23.0134 0 26.434 0 30Z" fill="#D9D9D9"/>
<path d="M0 30C0 36.3567 1.97706 42.2517 5.34982 47.1035H17.5041L1.76389 19.8406C0.622176 23.0134 0 26.434 0 30Z" fill="url(#paint3_linear_4564_170)"/>
<path d="M9.03672 27.7177L2.90703 17.1007C7.01157 8.49519 15.0954 2.15241 24.778 0.452889L9.03672 27.7177Z" fill="#D9D9D9"/>
<path d="M9.03672 27.7177L2.90703 17.1007C7.01157 8.49519 15.0954 2.15241 24.778 0.452889L9.03672 27.7177Z" fill="url(#paint4_linear_4564_170)"/>
<path d="M39.1734 14.1274L48.3472 30.017L39.1728 45.9057L20.8264 45.9061L11.6526 30.0166L20.8256 14.1275L39.1734 14.1274Z" stroke="#343636" stroke-width="1.66059"/>
<mask id="mask0_4564_170" style="mask-type:alpha" maskUnits="userSpaceOnUse" x="14" y="16" width="32" height="28">
<path d="M22.0093 16.1776L37.9902 16.1776L45.9806 30.0174L37.9902 43.8573L22.0093 43.8573L14.0188 30.0174L22.0093 16.1776Z" fill="white"/>
</mask>
<g mask="url(#mask0_4564_170)">
<path d="M15.0482 29.9736L15.0482 36.7171L17.9114 48.9904L41.7074 48.9904L47.3571 31.9104L46.1068 30.9811L43.1598 32.3179L43.1598 34.5358L42.3092 34.5358L42.3091 22.93C38.9087 23.8412 37.7934 27.8365 37.6608 29.7203L37.6608 33.442L36.9316 33.442L36.9316 32.5002L35.3062 32.5002L35.3062 28.4139L31.2959 28.4139L31.2959 32.0445L29.6401 32.0445L29.6401 29.8528L27.7261 29.8528L27.7261 25.6045L27.1184 25.6045L27.1184 19.74L26.1462 15.8815L25.1868 19.74L25.1868 25.6045L24.5689 25.6045L24.5689 29.8528L22.5618 29.8528L22.5618 32.7816L22.0035 32.7816L22.0035 32.516L21.0638 32.516L21.0638 33.408L20.2943 33.408L20.2943 29.9736C20.2943 29.1709 19.7042 28.9708 19.4091 28.9711L16.1012 28.9711C15.2679 28.9711 15.052 29.6394 15.0482 29.9736Z" fill="#343636"/>
</g>
<defs>
<linearGradient id="paint0_linear_4564_170" x1="24.3284" y1="4.22246" x2="58.7928" y2="58.5427" gradientUnits="userSpaceOnUse">
<stop stop-color="#9DBDC7"/>
<stop offset="1" stop-color="#62848E"/>
</linearGradient>
<linearGradient id="paint1_linear_4564_170" x1="24.3284" y1="4.22246" x2="58.7928" y2="58.5427" gradientUnits="userSpaceOnUse">
<stop stop-color="#9DBDC7"/>
<stop offset="1" stop-color="#62848E"/>
</linearGradient>
<linearGradient id="paint2_linear_4564_170" x1="24.3284" y1="4.22246" x2="58.7928" y2="58.5427" gradientUnits="userSpaceOnUse">
<stop stop-color="#9DBDC7"/>
<stop offset="1" stop-color="#62848E"/>
</linearGradient>
<linearGradient id="paint3_linear_4564_170" x1="24.3284" y1="4.22246" x2="58.7928" y2="58.5427" gradientUnits="userSpaceOnUse">
<stop stop-color="#9DBDC7"/>
<stop offset="1" stop-color="#62848E"/>
</linearGradient>
<linearGradient id="paint4_linear_4564_170" x1="24.3284" y1="4.22246" x2="58.7928" y2="58.5427" gradientUnits="userSpaceOnUse">
<stop stop-color="#9DBDC7"/>
<stop offset="1" stop-color="#62848E"/>
</linearGradient>
</defs>
</svg>
