<svg width="267" height="68" viewBox="0 0 267 68" fill="none" xmlns="http://www.w3.org/2000/svg">
<path d="M89.5221 17.0963C89.5221 15.661 89.987 14.5491 90.917 13.7607C91.8671 12.9722 93.2115 12.578 94.9501 12.578C96.6887 12.578 98.1038 12.76 99.1955 13.1238V15.853C98.1038 15.4285 96.7796 15.2162 95.223 15.2162C93.3429 15.2162 92.4029 15.9137 92.4029 17.3086V18.4912C92.4029 19.1381 92.5242 19.6536 92.7667 20.0377C93.0296 20.4016 93.4844 20.7655 94.1313 21.1294L97.6489 23.1005C99.2864 23.99 100.105 25.3344 100.105 27.1336V28.8317C100.105 30.3075 99.5897 31.4497 98.5587 32.2584C97.5276 33.0468 96.0721 33.441 94.192 33.441C92.3321 33.441 90.8361 33.2287 89.704 32.8042V30.075C91.0383 30.5602 92.4433 30.8028 93.9191 30.8028C96.1226 30.8028 97.2244 30.0548 97.2244 28.5588V27.5278C97.2244 26.9213 97.1132 26.4563 96.8908 26.1329C96.6685 25.7892 96.254 25.4557 95.6475 25.1322L92.2209 23.2521C90.4217 22.2817 89.5221 20.8363 89.5221 18.9158V17.0963ZM103.451 12.7296H106.301V33.2894H103.451V12.7296ZM111.426 12.7296H114.489L110.334 22.8882L114.761 33.2894H111.577L107.302 22.9489L111.426 12.7296ZM123.745 33.2894H120.864V26.5271L115.86 12.7296H118.802L120.53 17.5815C121.157 19.4009 121.764 21.3316 122.35 23.3734C122.916 21.3922 123.512 19.4616 124.139 17.5815L125.867 12.7296H128.748L123.745 26.5271V33.2894ZM131.286 12.7296H134.167V30.8331H140.171V33.2894H131.286V12.7296ZM142.82 12.7296H145.701V33.2894H142.82V12.7296ZM158.885 12.7296H161.705V33.2894H158.672C155.498 25.1827 153.426 19.8053 152.456 17.157C152.456 17.3793 152.496 17.8443 152.577 18.5519C152.739 20.3107 152.82 22.2615 152.82 24.4044V33.2894H150.03V12.7296H153.093C155.903 19.8457 157.611 24.2528 158.218 25.9509C158.824 27.6491 159.168 28.6094 159.249 28.8317C159.249 28.6498 159.188 27.7603 159.067 26.1632C158.966 24.5459 158.905 22.9893 158.885 21.4933V12.7296ZM166.065 12.7296H175.435V15.2465H168.916V21.6449H174.586V24.1618H168.916V30.8028H175.435V33.2894H166.065V12.7296ZM187.497 17.0963C187.497 15.661 187.962 14.5491 188.892 13.7607C189.842 12.9722 191.187 12.578 192.925 12.578C194.664 12.578 196.079 12.76 197.171 13.1238V15.853C196.079 15.4285 194.755 15.2162 193.198 15.2162C191.318 15.2162 190.378 15.9137 190.378 17.3086V18.4912C190.378 19.1381 190.499 19.6536 190.742 20.0377C191.005 20.4016 191.46 20.7655 192.107 21.1294L195.624 23.1005C197.262 23.99 198.081 25.3344 198.081 27.1336V28.8317C198.081 30.3075 197.565 31.4497 196.534 32.2584C195.503 33.0468 194.047 33.441 192.167 33.441C190.307 33.441 188.811 33.2287 187.679 32.8042V30.075C189.014 30.5602 190.419 30.8028 191.894 30.8028C194.098 30.8028 195.2 30.0548 195.2 28.5588V27.5278C195.2 26.9213 195.089 26.4563 194.866 26.1329C194.644 25.7892 194.229 25.4557 193.623 25.1322L190.196 23.2521C188.397 22.2817 187.497 20.8363 187.497 18.9158V17.0963ZM201.123 17.1266C201.123 15.6913 201.608 14.5794 202.578 13.791C203.549 12.9823 205.014 12.578 206.975 12.578C208.269 12.578 209.462 12.7296 210.553 13.0329V15.6711C209.361 15.3274 208.188 15.1556 207.036 15.1556C205.884 15.1556 205.085 15.3375 204.64 15.7014C204.216 16.0653 204.003 16.6111 204.003 17.3389V28.7104C204.003 29.418 204.226 29.9537 204.671 30.3176C205.115 30.6815 205.934 30.8635 207.127 30.8635C208.32 30.8635 209.492 30.7017 210.644 30.3783V32.9558C209.593 33.2793 208.36 33.441 206.945 33.441C203.063 33.441 201.123 31.9248 201.123 28.8924V17.1266ZM214.144 12.7296H223.514V15.2465H216.995V21.6449H222.665V24.1618H216.995V30.8028H223.514V33.2894H214.144V12.7296ZM235.865 12.7296H238.685V33.2894H235.653C232.479 25.1827 230.407 19.8053 229.437 17.157C229.437 17.3793 229.477 17.8443 229.558 18.5519C229.72 20.3107 229.8 22.2615 229.8 24.4044V33.2894H227.011V12.7296H230.073C232.883 19.8457 234.592 24.2528 235.198 25.9509C235.805 27.6491 236.148 28.6094 236.229 28.8317C236.229 28.6498 236.169 27.7603 236.047 26.1632C235.946 24.5459 235.886 22.9893 235.865 21.4933V12.7296ZM243.046 12.7296H252.416V15.2465H245.896V21.6449H251.567V24.1618H245.896V30.8028H252.416V33.2894H243.046V12.7296ZM254.82 17.0963C254.82 15.661 255.285 14.5491 256.215 13.7607C257.166 12.9722 258.51 12.578 260.248 12.578C261.987 12.578 263.402 12.76 264.494 13.1238V15.853C263.402 15.4285 262.078 15.2162 260.521 15.2162C258.641 15.2162 257.701 15.9137 257.701 17.3086V18.4912C257.701 19.1381 257.823 19.6536 258.065 20.0377C258.328 20.4016 258.783 20.7655 259.43 21.1294L262.947 23.1005C264.585 23.99 265.404 25.3344 265.404 27.1336V28.8317C265.404 30.3075 264.888 31.4497 263.857 32.2584C262.826 33.0468 261.37 33.441 259.49 33.441C257.631 33.441 256.135 33.2287 255.002 32.8042V30.075C256.337 30.5602 257.742 30.8028 259.217 30.8028C261.421 30.8028 262.523 30.0548 262.523 28.5588V27.5278C262.523 26.9213 262.412 26.4563 262.189 26.1329C261.967 25.7892 261.552 25.4557 260.946 25.1322L257.519 23.2521C255.72 22.2817 254.82 20.8363 254.82 18.9158V17.0963Z" fill="#343636"/>
<path d="M130.019 45.1221C130.019 44.2693 129.593 43.8428 128.74 43.8428C128.272 43.8428 127.665 43.983 126.917 44.2634V51.5539H128.372C129.47 51.5539 130.019 51.0398 130.019 50.0117V45.1221ZM125.673 40.0749H126.9V43.1068C127.601 42.8147 128.296 42.6686 128.985 42.6686C129.674 42.6686 130.229 42.8731 130.65 43.282C131.071 43.6909 131.281 44.2634 131.281 44.9995V50.0993C131.281 50.9288 131.041 51.5714 130.562 52.0271C130.095 52.471 129.464 52.693 128.67 52.693H125.673V40.0749ZM140.697 42.7212H141.941L139.207 55.3043H138.015L138.558 52.693H137.945L135.772 42.7212H137.034L138.085 47.6808L138.856 51.8168C139.09 50.4381 139.347 49.0595 139.627 47.6808L140.697 42.7212ZM158.943 43.5799V44.5789C158.943 45.7005 158.511 46.4249 157.646 46.752C158.581 47.0674 159.048 47.8093 159.048 48.9777V50.0292C159.048 50.8587 158.808 51.513 158.329 51.992C157.862 52.4593 157.161 52.693 156.226 52.693H153.089V40.9161H156.121C157.056 40.9161 157.757 41.1556 158.224 41.6346C158.703 42.102 158.943 42.7504 158.943 43.5799ZM156.016 42.0027H154.334V46.2262H156.016C157.138 46.2262 157.699 45.6888 157.699 44.6139V43.615C157.699 42.5401 157.138 42.0027 156.016 42.0027ZM157.804 49.9941V48.9426C157.804 47.8678 157.243 47.3303 156.121 47.3303H154.334V51.6065H156.121C157.243 51.6065 157.804 51.069 157.804 49.9941ZM165.055 41.5996C164.553 41.5996 164.302 41.3309 164.302 40.7934C164.302 40.256 164.553 39.9873 165.055 39.9873C165.569 39.9873 165.826 40.256 165.826 40.7934C165.826 41.3309 165.569 41.5996 165.055 41.5996ZM164.442 42.7913H165.686V52.693H164.442V42.7913ZM171.259 40.0749H172.503V52.693H171.259V40.0749ZM178.076 40.0749H179.32V52.693H178.076V40.0749ZM191.192 43.3171C191.192 41.658 192.244 40.8285 194.347 40.8285C195.024 40.8285 195.702 40.922 196.38 41.1089V42.2655C195.69 42.0669 195.001 41.9676 194.312 41.9676C193.622 41.9676 193.138 42.0903 192.857 42.3356C192.577 42.5693 192.437 42.9198 192.437 43.3872V50.2395C192.437 50.6951 192.577 51.0457 192.857 51.291C193.149 51.5247 193.652 51.6415 194.364 51.6415C195.089 51.6415 195.772 51.548 196.415 51.3611V52.5002C195.831 52.6872 195.141 52.7806 194.347 52.7806C192.244 52.7806 191.192 51.9511 191.192 50.2921V43.3171ZM205.695 45.2799C205.695 44.1933 205.158 43.65 204.083 43.65C203.008 43.65 202.471 44.1933 202.471 45.2799V50.1343C202.471 51.2326 203.008 51.7817 204.083 51.7817C205.158 51.7817 205.695 51.2326 205.695 50.1343V45.2799ZM201.244 45.2624C201.244 44.4328 201.478 43.7727 201.945 43.282C202.412 42.7913 203.125 42.546 204.083 42.546C205.041 42.546 205.754 42.7913 206.221 43.282C206.688 43.7727 206.922 44.4328 206.922 45.2624V50.1519C206.922 50.9814 206.688 51.6415 206.221 52.1322C205.754 52.6229 205.041 52.8683 204.083 52.8683C203.125 52.8683 202.412 52.6229 201.945 52.1322C201.478 51.6415 201.244 50.9814 201.244 50.1519V45.2624ZM216.673 45.1221C216.673 44.2693 216.246 43.8428 215.393 43.8428C214.926 43.8428 214.318 43.983 213.571 44.2634V51.5539H215.025C216.124 51.5539 216.673 51.0398 216.673 50.0117V45.1221ZM212.326 40.0749H213.553V43.1068C214.254 42.8147 214.949 42.6686 215.639 42.6686C216.328 42.6686 216.883 42.8731 217.304 43.282C217.724 43.6909 217.935 44.2634 217.935 44.9995V50.0993C217.935 50.9288 217.695 51.5714 217.216 52.0271C216.749 52.471 216.118 52.693 215.323 52.693H212.326V40.0749ZM227.666 45.1221C227.666 44.2693 227.239 43.8428 226.386 43.8428C225.919 43.8428 225.311 43.983 224.564 44.2634V51.5539H226.018C227.117 51.5539 227.666 51.0398 227.666 50.0117V45.1221ZM223.319 40.0749H224.546V43.1068C225.247 42.8147 225.942 42.6686 226.632 42.6686C227.321 42.6686 227.876 42.8731 228.297 43.282C228.717 43.6909 228.927 44.2634 228.927 44.9995V50.0993C228.927 50.9288 228.688 51.5714 228.209 52.0271C227.742 52.471 227.111 52.693 226.316 52.693H223.319V40.0749Z" fill="#343636"/>
<path d="M34 0C33.2483 0 32.5023 0.0243953 31.7627 0.0724373L24.677 12.178H60.074C53.8371 4.73373 44.4714 0 34 0Z" fill="#D9D9D9"/>
<path d="M34 0C33.2483 0 32.5023 0.0243953 31.7627 0.0724373L24.677 12.178H60.074C53.8371 4.73373 44.4714 0 34 0Z" fill="url(#paint0_linear_4261_863)"/>
<path d="M62.2439 15.0654C65.879 20.477 68 26.9908 68 34C68 38.1346 67.262 42.0968 65.9105 45.7622C65.5133 46.8395 65.063 47.8912 64.5629 48.9141C59.8533 58.5473 50.7234 65.6247 39.8151 67.5047L57.4483 37.0439L64.5629 48.9141C65.063 47.8912 65.5133 46.8395 65.9105 45.7622L47.914 15.0654H62.2439Z" fill="#D9D9D9"/>
<path d="M62.2439 15.0654C65.879 20.477 68 26.9908 68 34C68 38.1346 67.262 42.0968 65.9105 45.7622C65.5133 46.8395 65.063 47.8912 64.5629 48.9141C59.8533 58.5473 50.7234 65.6247 39.8151 67.5047L57.4483 37.0439L64.5629 48.9141C65.063 47.8912 65.5133 46.8395 65.9105 45.7622L47.914 15.0654H62.2439Z" fill="url(#paint1_linear_4261_863)"/>
<path d="M7.96879 55.873C14.2057 63.2879 23.5526 68 34 68C34.8063 68 35.606 67.9719 36.3982 67.9167L43.2666 55.873H7.96879Z" fill="#D9D9D9"/>
<path d="M7.96879 55.873C14.2057 63.2879 23.5526 68 34 68C34.8063 68 35.606 67.9719 36.3982 67.9167L43.2666 55.873H7.96879Z" fill="url(#paint2_linear_4261_863)"/>
<path d="M0 34C0 41.2043 2.24067 47.8852 6.06313 53.3839H19.838L1.99908 22.4861C0.705132 26.0818 0 29.9586 0 34Z" fill="#D9D9D9"/>
<path d="M0 34C0 41.2043 2.24067 47.8852 6.06313 53.3839H19.838L1.99908 22.4861C0.705132 26.0818 0 29.9586 0 34Z" fill="url(#paint3_linear_4261_863)"/>
<path d="M10.2416 31.4134L3.29464 19.3808C7.94645 9.62788 17.1081 2.4394 28.0818 0.513275L10.2416 31.4134Z" fill="#D9D9D9"/>
<path d="M10.2416 31.4134L3.29464 19.3808C7.94645 9.62788 17.1081 2.4394 28.0818 0.513275L10.2416 31.4134Z" fill="url(#paint4_linear_4261_863)"/>
<path d="M44.3963 16.0107L54.7933 34.0188L44.3963 52.0263L23.6023 52.0258L13.2063 34.0194L23.6028 16.011L44.3963 16.0107Z" stroke="#343636" stroke-width="1.882"/>
<mask id="mask0_4261_863" style="mask-type:alpha" maskUnits="userSpaceOnUse" x="15" y="18" width="38" height="32">
<path d="M24.9439 18.334L43.0556 18.334L52.1114 34.0192L43.0556 49.7043L24.9439 49.7043L15.8881 34.0192L24.9439 18.334Z" fill="white"/>
</mask>
<g mask="url(#mask0_4261_863)">
<path d="M17.0549 33.9698L17.0549 41.6124L20.2999 55.5221L47.2687 55.5221L53.6717 36.1648L52.2547 35.1116L48.9148 36.6266L48.9148 39.1402L47.9507 39.1402L47.9507 25.9871C44.0969 27.0197 42.8329 31.5477 42.6826 33.6827L42.6826 37.9006L41.8562 37.9006L41.8562 36.8332L40.0141 36.8332L40.0141 32.2021L35.469 32.2021L35.469 36.3167L33.5924 36.3168L33.5924 33.8329L31.4232 33.8329L31.4232 29.0182L30.7345 29.0182L30.7345 22.3717L29.6327 17.9988L28.5454 22.3717L28.5454 29.0182L27.8451 29.0182L27.8451 33.8329L25.5704 33.8329L25.5704 37.1521L24.9376 37.1521L24.9376 36.8511L23.8726 36.8511L23.8726 37.8621L23.0006 37.8621L23.0006 33.9698C23.0006 33.06 22.3318 32.8332 21.9973 32.8336L18.2484 32.8336C17.304 32.8336 17.0592 33.591 17.0549 33.9698Z" fill="#343636"/>
</g>
<defs>
<linearGradient id="paint0_linear_4261_863" x1="27.5722" y1="4.78546" x2="66.6318" y2="66.3483" gradientUnits="userSpaceOnUse">
<stop stop-color="#9DBDC7"/>
<stop offset="1" stop-color="#62848E"/>
</linearGradient>
<linearGradient id="paint1_linear_4261_863" x1="27.5722" y1="4.78546" x2="66.6318" y2="66.3483" gradientUnits="userSpaceOnUse">
<stop stop-color="#9DBDC7"/>
<stop offset="1" stop-color="#62848E"/>
</linearGradient>
<linearGradient id="paint2_linear_4261_863" x1="27.5722" y1="4.78546" x2="66.6318" y2="66.3483" gradientUnits="userSpaceOnUse">
<stop stop-color="#9DBDC7"/>
<stop offset="1" stop-color="#62848E"/>
</linearGradient>
<linearGradient id="paint3_linear_4261_863" x1="27.5722" y1="4.78546" x2="66.6318" y2="66.3483" gradientUnits="userSpaceOnUse">
<stop stop-color="#9DBDC7"/>
<stop offset="1" stop-color="#62848E"/>
</linearGradient>
<linearGradient id="paint4_linear_4261_863" x1="27.5722" y1="4.78546" x2="66.6318" y2="66.3483" gradientUnits="userSpaceOnUse">
<stop stop-color="#9DBDC7"/>
<stop offset="1" stop-color="#62848E"/>
</linearGradient>
</defs>
</svg>
