<svg width="190" height="48" viewBox="0 0 190 48" fill="none" xmlns="http://www.w3.org/2000/svg">
<path d="M64.164 12.2445C64.164 11.2313 64.4922 10.4464 65.1486 9.88988C65.8193 9.33334 66.7683 9.05507 67.9955 9.05507C69.2227 9.05507 70.2216 9.18351 70.9922 9.44037V11.3668C70.2216 11.0672 69.287 10.9173 68.1881 10.9173C66.861 10.9173 66.1975 11.4097 66.1975 12.3943V13.2291C66.1975 13.6857 66.2831 14.0496 66.4543 14.3208C66.6398 14.5776 66.9609 14.8345 67.4176 15.0914L69.9006 16.4827C71.0565 17.1106 71.6344 18.0596 71.6344 19.3296V20.5283C71.6344 21.57 71.2705 22.3763 70.5427 22.9471C69.8149 23.5036 68.7875 23.7819 67.4604 23.7819C66.1475 23.7819 65.0915 23.6321 64.2924 23.3324V21.4059C65.2342 21.7484 66.226 21.9196 67.2677 21.9196C68.8232 21.9196 69.6009 21.3916 69.6009 20.3356V19.6079C69.6009 19.1798 69.5224 18.8515 69.3654 18.6232C69.2085 18.3806 68.9159 18.1452 68.4878 17.9169L66.069 16.5897C64.799 15.9048 64.164 14.8844 64.164 13.5288V12.2445ZM73.9958 9.1621H76.0079V23.6749H73.9958V9.1621ZM79.6254 9.1621H81.7873L78.8548 16.3329L81.98 23.6749H79.7324L76.7143 16.3757L79.6254 9.1621ZM88.3211 23.6749H86.2876V18.9015L82.7558 9.1621H84.8321L86.0522 12.5869C86.4945 13.8713 86.9227 15.2341 87.3365 16.6753C87.7361 15.2769 88.157 13.9141 88.5994 12.5869L89.8195 9.1621H91.853L88.3211 18.9015V23.6749ZM93.6444 9.1621H95.6779V21.941H99.9161V23.6749H93.6444V9.1621ZM101.786 9.1621H103.819V23.6749H101.786V9.1621ZM113.126 9.1621H115.117V23.6749H112.976C110.736 17.9525 109.273 14.1567 108.588 12.2873C108.588 12.4442 108.616 12.7725 108.674 13.2719C108.788 14.5134 108.845 15.8905 108.845 17.4031V23.6749H106.875V9.1621H109.037C111.021 14.1852 112.227 17.2961 112.655 18.4948C113.083 19.6935 113.326 20.3713 113.383 20.5283C113.383 20.3999 113.34 19.772 113.254 18.6446C113.183 17.503 113.14 16.4042 113.126 15.3482V9.1621ZM118.194 9.1621H124.809V10.9387H120.206V15.4552H124.209V17.2319H120.206V21.9196H124.809V23.6749H118.194V9.1621ZM133.323 12.2445C133.323 11.2313 133.651 10.4464 134.308 9.88988C134.978 9.33334 135.927 9.05507 137.155 9.05507C138.382 9.05507 139.381 9.18351 140.151 9.44037V11.3668C139.381 11.0672 138.446 10.9173 137.347 10.9173C136.02 10.9173 135.357 11.4097 135.357 12.3943V13.2291C135.357 13.6857 135.442 14.0496 135.613 14.3208C135.799 14.5776 136.12 14.8345 136.577 15.0914L139.06 16.4827C140.216 17.1106 140.793 18.0596 140.793 19.3296V20.5283C140.793 21.57 140.43 22.3763 139.702 22.9471C138.974 23.5036 137.947 23.7819 136.619 23.7819C135.307 23.7819 134.251 23.6321 133.451 23.3324V21.4059C134.393 21.7484 135.385 21.9196 136.427 21.9196C137.982 21.9196 138.76 21.3916 138.76 20.3356V19.6079C138.76 19.1798 138.681 18.8515 138.524 18.6232C138.368 18.3806 138.075 18.1452 137.647 17.9169L135.228 16.5897C133.958 15.9048 133.323 14.8844 133.323 13.5288V12.2445ZM142.941 12.2659C142.941 11.2527 143.283 10.4678 143.968 9.91128C144.653 9.34048 145.688 9.05507 147.072 9.05507C147.985 9.05507 148.827 9.1621 149.598 9.37615V11.2384C148.756 10.9958 147.928 10.8745 147.115 10.8745C146.301 10.8745 145.738 11.003 145.424 11.2598C145.124 11.5167 144.974 11.902 144.974 12.4157V20.4427C144.974 20.9421 145.131 21.3203 145.445 21.5772C145.759 21.834 146.337 21.9624 147.179 21.9624C148.021 21.9624 148.849 21.8483 149.662 21.62V23.4394C148.92 23.6677 148.05 23.7819 147.051 23.7819C144.311 23.7819 142.941 22.7116 142.941 20.5711V12.2659ZM152.133 9.1621H158.747V10.9387H154.145V15.4552H158.147V17.2319H154.145V21.9196H158.747V23.6749H152.133V9.1621ZM167.465 9.1621H169.456V23.6749H167.315C165.075 17.9525 163.612 14.1567 162.927 12.2873C162.927 12.4442 162.956 12.7725 163.013 13.2719C163.127 14.5134 163.184 15.8905 163.184 17.4031V23.6749H161.215V9.1621H163.377C165.36 14.1852 166.566 17.2961 166.994 18.4948C167.422 19.6935 167.665 20.3713 167.722 20.5283C167.722 20.3999 167.679 19.772 167.593 18.6446C167.522 17.503 167.479 16.4042 167.465 15.3482V9.1621ZM172.534 9.1621H179.148V10.9387H174.546V15.4552H178.548V17.2319H174.546V21.9196H179.148V23.6749H172.534V9.1621ZM180.845 12.2445C180.845 11.2313 181.173 10.4464 181.83 9.88988C182.501 9.33334 183.45 9.05507 184.677 9.05507C185.904 9.05507 186.903 9.18351 187.673 9.44037V11.3668C186.903 11.0672 185.968 10.9173 184.869 10.9173C183.542 10.9173 182.879 11.4097 182.879 12.3943V13.2291C182.879 13.6857 182.964 14.0496 183.136 14.3208C183.321 14.5776 183.642 14.8345 184.099 15.0914L186.582 16.4827C187.738 17.1106 188.316 18.0596 188.316 19.3296V20.5283C188.316 21.57 187.952 22.3763 187.224 22.9471C186.496 23.5036 185.469 23.7819 184.142 23.7819C182.829 23.7819 181.773 23.6321 180.974 23.3324V21.4059C181.915 21.7484 182.907 21.9196 183.949 21.9196C185.504 21.9196 186.282 21.3916 186.282 20.3356V19.6079C186.282 19.1798 186.204 18.8515 186.047 18.6232C185.89 18.3806 185.597 18.1452 185.169 17.9169L182.75 16.5897C181.48 15.9048 180.845 14.8844 180.845 13.5288V12.2445Z" fill="#343636"/>
<path d="M92.838 31.3803C92.838 30.7783 92.537 30.4773 91.9349 30.4773C91.605 30.4773 91.1762 30.5763 90.6484 30.7742V35.9204H91.6752C92.4504 35.9204 92.838 35.5575 92.838 34.8318V31.3803ZM89.7701 27.8176H90.636V29.9577C91.1308 29.7515 91.6215 29.6484 92.1081 29.6484C92.5947 29.6484 92.9864 29.7928 93.2833 30.0814C93.5802 30.3701 93.7287 30.7742 93.7287 31.2938V34.8936C93.7287 35.4792 93.5596 35.9328 93.2215 36.2544C92.8916 36.5678 92.4463 36.7245 91.8855 36.7245H89.7701V27.8176ZM100.375 29.6856H101.253L99.3235 38.5677H98.4823L98.8658 36.7245H98.4328L96.8989 29.6856H97.7896L98.5318 33.1865L99.0761 36.106C99.2411 35.1328 99.4225 34.1596 99.6204 33.1865L100.375 29.6856ZM113.255 30.2917V30.9969C113.255 31.7886 112.95 32.2999 112.339 32.5308C112.999 32.7535 113.329 33.2772 113.329 34.1019V34.8441C113.329 35.4297 113.16 35.8915 112.822 36.2297C112.492 36.5595 111.997 36.7245 111.337 36.7245H109.123V28.4114H111.263C111.923 28.4114 112.418 28.5804 112.748 28.9186C113.086 29.2485 113.255 29.7062 113.255 30.2917ZM111.189 29.1784H110.001V32.1597H111.189C111.981 32.1597 112.376 31.7803 112.376 31.0216V30.3165C112.376 29.5577 111.981 29.1784 111.189 29.1784ZM112.451 34.8194V34.0772C112.451 33.3184 112.055 32.9391 111.263 32.9391H110.001V35.9575H111.263C112.055 35.9575 112.451 35.5781 112.451 34.8194ZM117.569 28.8938C117.215 28.8938 117.037 28.7042 117.037 28.3248C117.037 27.9454 117.215 27.7557 117.569 27.7557C117.932 27.7557 118.114 27.9454 118.114 28.3248C118.114 28.7042 117.932 28.8938 117.569 28.8938ZM117.136 29.735H118.015V36.7245H117.136V29.735ZM121.948 27.8176H122.827V36.7245H121.948V27.8176ZM126.76 27.8176H127.639V36.7245H126.76V27.8176ZM136.019 30.1062C136.019 28.9351 136.761 28.3495 138.246 28.3495C138.724 28.3495 139.202 28.4155 139.681 28.5475V29.3639C139.194 29.2237 138.708 29.1536 138.221 29.1536C137.734 29.1536 137.392 29.2402 137.194 29.4134C136.996 29.5783 136.897 29.8258 136.897 30.1556V34.9926C136.897 35.3142 136.996 35.5616 137.194 35.7348C137.4 35.8998 137.755 35.9822 138.258 35.9822C138.769 35.9822 139.252 35.9163 139.706 35.7843V36.5884C139.293 36.7204 138.807 36.7863 138.246 36.7863C136.761 36.7863 136.019 36.2008 136.019 35.0297V30.1062ZM146.257 31.4917C146.257 30.7247 145.877 30.3412 145.118 30.3412C144.36 30.3412 143.98 30.7247 143.98 31.4917V34.9184C143.98 35.6936 144.36 36.0812 145.118 36.0812C145.877 36.0812 146.257 35.6936 146.257 34.9184V31.4917ZM143.114 31.4793C143.114 30.8938 143.279 30.4278 143.609 30.0814C143.939 29.735 144.442 29.5619 145.118 29.5619C145.795 29.5619 146.298 29.735 146.628 30.0814C146.958 30.4278 147.122 30.8938 147.122 31.4793V34.9307C147.122 35.5163 146.958 35.9822 146.628 36.3286C146.298 36.675 145.795 36.8482 145.118 36.8482C144.442 36.8482 143.939 36.675 143.609 36.3286C143.279 35.9822 143.114 35.5163 143.114 34.9307V31.4793ZM154.005 31.3803C154.005 30.7783 153.704 30.4773 153.102 30.4773C152.772 30.4773 152.343 30.5763 151.816 30.7742V35.9204H152.842C153.618 35.9204 154.005 35.5575 154.005 34.8318V31.3803ZM150.937 27.8176H151.803V29.9577C152.298 29.7515 152.789 29.6484 153.275 29.6484C153.762 29.6484 154.154 29.7928 154.451 30.0814C154.748 30.3701 154.896 30.7742 154.896 31.2938V34.8936C154.896 35.4792 154.727 35.9328 154.389 36.2544C154.059 36.5678 153.614 36.7245 153.053 36.7245H150.937V27.8176ZM161.765 31.3803C161.765 30.7783 161.464 30.4773 160.862 30.4773C160.532 30.4773 160.103 30.5763 159.575 30.7742V35.9204H160.602C161.377 35.9204 161.765 35.5575 161.765 34.8318V31.3803ZM158.697 27.8176H159.563V29.9577C160.058 29.7515 160.549 29.6484 161.035 29.6484C161.522 29.6484 161.913 29.7928 162.21 30.0814C162.507 30.3701 162.656 30.7742 162.656 31.2938V34.8936C162.656 35.4792 162.487 35.9328 162.148 36.2544C161.819 36.5678 161.373 36.7245 160.812 36.7245H158.697V27.8176Z" fill="#343636"/>
<path d="M24.9717 0C24.4411 0 23.9145 0.0172202 23.3924 0.0511322L18.3907 8.59622H43.3769C38.9743 3.34146 32.3632 0 24.9717 0Z" fill="#D9D9D9"/>
<path d="M24.9717 0C24.4411 0 23.9145 0.0172202 23.3924 0.0511322L18.3907 8.59622H43.3769C38.9743 3.34146 32.3632 0 24.9717 0Z" fill="url(#paint0_linear_4261_2420)"/>
<path d="M44.9086 10.6344C47.4745 14.4544 48.9717 19.0523 48.9717 24C48.9717 26.9185 48.4507 29.7154 47.4967 32.3027C47.2163 33.0632 46.8985 33.8056 46.5455 34.5276C43.2211 41.3275 36.7765 46.3233 29.0765 47.6503L41.5234 26.1486L46.5455 34.5276C46.8985 33.8056 47.2163 33.0632 47.4967 32.3027L34.7933 10.6344H44.9086Z" fill="#D9D9D9"/>
<path d="M44.9086 10.6344C47.4745 14.4544 48.9717 19.0523 48.9717 24C48.9717 26.9185 48.4507 29.7154 47.4967 32.3027C47.2163 33.0632 46.8985 33.8056 46.5455 34.5276C43.2211 41.3275 36.7765 46.3233 29.0765 47.6503L41.5234 26.1486L46.5455 34.5276C46.8985 33.8056 47.2163 33.0632 47.4967 32.3027L34.7933 10.6344H44.9086Z" fill="url(#paint1_linear_4261_2420)"/>
<path d="M6.5967 39.4398C10.9992 44.6738 17.597 48 24.9717 48C25.5408 48 26.1053 47.9802 26.6645 47.9412L31.5128 39.4398H6.5967Z" fill="#D9D9D9"/>
<path d="M6.5967 39.4398C10.9992 44.6738 17.597 48 24.9717 48C25.5408 48 26.1053 47.9802 26.6645 47.9412L31.5128 39.4398H6.5967Z" fill="url(#paint2_linear_4261_2420)"/>
<path d="M0.97168 24C0.97168 29.0854 2.55333 33.8013 5.25153 37.6828H14.975L2.3828 15.8725C1.46942 18.4107 0.97168 21.1472 0.97168 24Z" fill="#D9D9D9"/>
<path d="M0.97168 24C0.97168 29.0854 2.55333 33.8013 5.25153 37.6828H14.975L2.3828 15.8725C1.46942 18.4107 0.97168 21.1472 0.97168 24Z" fill="url(#paint3_linear_4261_2420)"/>
<path d="M8.20105 22.1741L3.29731 13.6806C6.58094 6.79615 13.048 1.72193 20.7941 0.362311L8.20105 22.1741Z" fill="#D9D9D9"/>
<path d="M8.20105 22.1741L3.29731 13.6806C6.58094 6.79615 13.048 1.72193 20.7941 0.362311L8.20105 22.1741Z" fill="url(#paint4_linear_4261_2420)"/>
<path d="M32.3108 11.3018L39.6497 24.0131L32.3102 36.7247L17.6328 36.7245L10.294 24.0132L17.6325 11.3021L32.3108 11.3018Z" stroke="#343636" stroke-width="1.32847"/>
<mask id="mask0_4261_2420" style="mask-type:alpha" maskUnits="userSpaceOnUse" x="12" y="12" width="26" height="24">
<path d="M18.5787 12.9417L31.3634 12.9417L37.7558 24.0135L31.3634 35.0854L18.5787 35.0854L12.1864 24.0135L18.5787 12.9417Z" fill="white"/>
</mask>
<g mask="url(#mask0_4261_2420)">
<path d="M13.0102 23.9787L13.0102 29.3735L15.3008 39.1921L34.3376 39.1921L38.8573 25.5281L37.8571 24.7847L35.4995 25.8541L35.4995 27.6284L34.819 27.6284L34.819 18.3438C32.0987 19.0727 31.2064 22.269 31.1003 23.776L31.1003 26.7534L30.517 26.7534L30.517 25.9999L29.2167 25.9999L29.2167 22.7309L26.0084 22.7309L26.0084 25.6354L24.6838 25.6354L24.6838 23.882L23.1525 23.882L23.1525 20.4834L22.6664 20.4834L22.6664 15.7918L21.8887 12.705L21.1211 15.7918L21.1211 20.4834L20.6268 20.4834L20.6268 23.882L19.0212 23.882L19.0212 26.225L18.5745 26.225L18.5745 26.0126L17.8227 26.0126L17.8227 26.7262L17.2072 26.7262L17.2072 23.9787C17.2072 23.3365 16.735 23.1764 16.499 23.1767L13.8527 23.1767C13.186 23.1767 13.0133 23.7113 13.0102 23.9787Z" fill="#343636"/>
</g>
<defs>
<linearGradient id="paint0_linear_4261_2420" x1="20.4344" y1="3.37797" x2="48.0059" y2="46.8341" gradientUnits="userSpaceOnUse">
<stop stop-color="#9DBDC7"/>
<stop offset="1" stop-color="#62848E"/>
</linearGradient>
<linearGradient id="paint1_linear_4261_2420" x1="20.4344" y1="3.37797" x2="48.0059" y2="46.8341" gradientUnits="userSpaceOnUse">
<stop stop-color="#9DBDC7"/>
<stop offset="1" stop-color="#62848E"/>
</linearGradient>
<linearGradient id="paint2_linear_4261_2420" x1="20.4344" y1="3.37797" x2="48.0059" y2="46.8341" gradientUnits="userSpaceOnUse">
<stop stop-color="#9DBDC7"/>
<stop offset="1" stop-color="#62848E"/>
</linearGradient>
<linearGradient id="paint3_linear_4261_2420" x1="20.4344" y1="3.37797" x2="48.0059" y2="46.8341" gradientUnits="userSpaceOnUse">
<stop stop-color="#9DBDC7"/>
<stop offset="1" stop-color="#62848E"/>
</linearGradient>
<linearGradient id="paint4_linear_4261_2420" x1="20.4344" y1="3.37797" x2="48.0059" y2="46.8341" gradientUnits="userSpaceOnUse">
<stop stop-color="#9DBDC7"/>
<stop offset="1" stop-color="#62848E"/>
</linearGradient>
</defs>
</svg>
